<svg width="667" height="667" viewBox="0 0 667 667" xmlns="http://www.w3.org/2000/svg">
<path fill-rule="evenodd" clip-rule="evenodd" d="M0 333.333C0 149.238 149.238 0 333.333 0C517.427 0 666.667 149.238 666.667 333.333C666.667 517.427 517.427 666.667 333.333 666.667C149.238 666.667 0 517.427 0 333.333ZM461.07 418.49C450.857 433.807 430.16 437.947 414.843 427.737L328.17 369.953C310.57 358.22 300 338.47 300 317.32V316.667V166.667C300 148.257 314.923 133.333 333.333 133.333C351.743 133.333 366.667 148.257 366.667 166.667V315.493L451.823 372.263C467.14 382.477 471.28 403.173 461.07 418.49Z" />
</svg>
